<svg id="Layer_1" enable-background="new 0 0 511.448 511.448" height="512" viewBox="0 0 511.448 511.448" width="512" xmlns="http://www.w3.org/2000/svg"><path d="m436.508 74.94c-99.913-99.913-261.64-99.927-361.567 0-99.913 99.913-99.928 261.64 0 361.567 99.913 99.913 261.64 99.928 361.567 0 99.912-99.912 99.927-261.639 0-361.567zm-202.451 255.45c0 11.598-9.402 21-21 21s-21-9.402-21-21v-149.333c0-11.598 9.402-21 21-21s21 9.402 21 21zm85.333 0c0 11.598-9.402 21-21 21s-21-9.402-21-21v-149.333c0-11.598 9.402-21 21-21s21 9.402 21 21z"  style="fill:rgb(255,255,0)"/></svg>